(Kill the Irishman) With: Ray Stevenson, Val Kilmer and Christopher Walken

Dit waargebeurde verhaal onthult de details van de opkomst en ondergang van de beruchte vakbondsvertegenwoordiger Danny Greene (Ray Stevenson), die bekendheid verwierf in het midden van de jaren '70 voor zijn gedurfde bereidheid om de Italiaanse maffia te trotseren. Opgegroeid in de straten van Cleveland, geraakt de stoere reputatie van Greene uiteindelijk in contact met de lokale maffia. Het duurt niet lang alvorens de lokale maffia is uitgegroeid tot een grootse handhaver binnen de regio.

The true story of Danny Greene, a tough Irish thug working for mobsters in Cleveland during the 1970's. 

General:

Complete name                    : Kill the Irishman\Kill the Irishman.avi
Format                           : AVI
Format/Info                      : Audio Video Interleave
File size                        : 1.43 GiB
Duration                         : 1h 42mn
Overall bit rate                 : 1 998 Kbps

Video:

Format                           : MPEG-4 Visual
Format profile                   : Simple@L3
Format settings, BVOP            : No
Format settings, QPel            : No
Format settings, GMC             : No warppoints
Format settings, Matrix          : Default (H.263)
Codec ID                         : XVID
Codec ID/Hint                    : XviD
Duration                         : 1h 42mn
Bit rate                         : 1 539 Kbps
Width                            : 652 pixels
Height                           : 352 pixels
Display aspect ratio             : 1.852
Frame rate                       : 25.000 fps
Color space                      : YUV
Chroma subsampling               : 4:2:0
Bit depth                        : 8 bits
Scan type                        : Progressive
Bits/(Pixel*Frame)               : 0.268
Stream size                      : 1.10 GiB (77%)
Writing library                  : XviD 1.1.2 (UTC 2006-11-01)

Audio:

Format                           : AC-3
Format/Info                      : Audio Coding 3
Mode extension                   : CM (complete main)
Codec ID                         : 2000
Duration                         : 1h 42mn
Bit rate mode                    : Constant
Bit rate                         : 448 Kbps
Channel(s)                       : 6 channels
Channel positions                : Front: L C R, Side: L R, LFE
Sampling rate                    : 48.0 KHz
Bit depth                        : 16 bits
Stream size                      : 328 MiB (22%)
Alignment                        : Aligned on interleaves
Interleave, duration             : 32 ms (0.80 video frame)
Interleave, preload duration     : 160 ms

